<svg width="20" height="20" viewBox="0 0 20 20" xmlns="http://www.w3.org/2000/svg">
    <g fill="none" fill-rule="evenodd">
        <path d="M0 0h20v20H0z"/>
        <g fill="#FFF" fill-rule="nonzero">
            <path d="M13.246 3.27a.75.75 0 0 1 1.023-.28 8.565 8.565 0 0 1 2.136 1.727 8.357 8.357 0 0 1 2.14 5.589c0 4.666-3.828 8.444-8.545 8.444-4.717 0-8.545-3.778-8.545-8.444 0-2.087.77-4.058 2.14-5.59A8.553 8.553 0 0 1 5.73 2.99a.75.75 0 1 1 .743 1.302 7.065 7.065 0 0 0-1.761 1.424 6.857 6.857 0 0 0-1.758 4.59c0 3.833 3.152 6.944 7.045 6.944s7.045-3.111 7.045-6.944c0-1.714-.631-3.33-1.758-4.59a7.053 7.053 0 0 0-1.761-1.424.75.75 0 0 1-.28-1.023z"/>
            <path d="M10 1.25a.75.75 0 0 1 .75.75v8.205a.75.75 0 1 1-1.5 0V2a.75.75 0 0 1 .75-.75z"/>
        </g>
    </g>
</svg>
