<?xml version="1.0" encoding="UTF-8"?>
<svg width="64px" height="64px" viewBox="0 0 64 64" version="1.1" xmlns="http://www.w3.org/2000/svg" xmlns:xlink="http://www.w3.org/1999/xlink">
    <title>884A25DB-E9F3-43EA-9A08-B42F40FABDC4</title>
    <g id="PC端" stroke="none" stroke-width="1" fill="none" fill-rule="evenodd">
        <g id="IFA-Translator_Web_忘记密码-邮件发送提示" transform="translate(-333.000000, -253.000000)" fill="#04D299" fill-rule="nonzero">
            <g id="编组-2" transform="translate(135.000000, 193.000000)">
                <g id="编组" transform="translate(198.000000, 60.000000)">
                    <path d="M32,64 C14.326888,64 0,49.673112 0,32 C0,14.326888 14.326888,0 32,0 C49.673112,0 64,14.326888 64,32 C64,49.673112 49.673112,64 32,64 Z M28.9005714,40.4251429 L19.7485714,31.1634286 L13.7142857,36.928 C18.1028571,39.2914286 24.2514286,43.6022857 29.5177143,50.2857143 C33.2388571,43.2914286 44.7085714,28.9828571 50.2857143,27.7028571 C49.3851429,24.096 48.8777143,17.3257142 50.2857143,13.7142857 C38.848,21.2571428 28.9005714,40.4251428 28.9005714,40.4251429 Z" id="形状"></path>
                </g>
            </g>
        </g>
    </g>
</svg>