<?xml version="1.0" standalone="no"?><!DOCTYPE svg PUBLIC "-//W3C//DTD SVG 1.1//EN" "http://www.w3.org/Graphics/SVG/1.1/DTD/svg11.dtd"><svg t="1748930367058" class="icon" viewBox="0 0 1024 1024" version="1.1" xmlns="http://www.w3.org/2000/svg" p-id="6007" xmlns:xlink="http://www.w3.org/1999/xlink" width="200" height="200"><path d="M414.208 550.4h545.792c20.992 0 38.4-17.408 38.4-38.4s-17.408-38.4-38.4-38.4H419.328l104.96-92.16c15.872-13.824 17.408-38.4 3.584-54.272-13.824-15.872-38.4-17.408-54.272-3.584L291.84 483.328c-9.216 8.192-13.824 19.456-12.8 31.232-0.512 11.264 3.584 23.04 12.8 31.232l182.272 159.232c7.168 6.144 16.384 9.728 25.088 9.728 10.752 0 21.504-4.608 28.672-13.312 13.824-15.872 12.288-40.448-3.584-54.272l-110.08-96.768zM51.2 216.064v591.872c0 83.968 68.096 152.064 152.064 152.064h546.304c83.968 0 152.064-68.096 152.064-152.064v-30.72c0-20.992-17.408-38.4-38.4-38.4s-38.4 17.408-38.4 38.4v30.72c0 41.472-33.792 75.264-75.264 75.264H203.264c-41.472 0-75.264-33.792-75.264-75.264V216.064c0-41.472 33.792-75.264 75.264-75.264h546.304c41.472 0 75.264 33.792 75.264 75.264v30.72c0 20.992 17.408 38.4 38.4 38.4s38.4-17.408 38.4-38.4v-30.72c0-83.968-68.096-152.064-152.064-152.064H203.264C119.296 64 51.2 132.096 51.2 216.064z" p-id="6008" fill="#515151"></path></svg>