<svg width="28" height="28" viewBox="0 0 28 28" xmlns="http://www.w3.org/2000/svg">
    <g fill="none" fill-rule="evenodd">
        <path d="M0 0h28v28H0z"/>
        <g fill="#333">
            <path d="M22.429 3.043H5.57a4.214 4.214 0 0 0-4.214 4.214v13.486a4.214 4.214 0 0 0 4.214 4.214H22.43a4.214 4.214 0 0 0 4.214-4.214V7.257a4.214 4.214 0 0 0-4.214-4.214zm0 1.686a2.529 2.529 0 0 1 2.528 2.528v13.486a2.529 2.529 0 0 1-2.528 2.528H5.57a2.529 2.529 0 0 1-2.528-2.528V7.257A2.529 2.529 0 0 1 5.57 4.73H22.43z" fill-rule="nonzero"/>
            <path d="M6.92 11.556a1.77 1.77 0 1 0 0-3.54 1.77 1.77 0 0 0 0 3.54z"/>
            <path d="M15.135 14.658a4.315 4.315 0 0 1 5.695.095l5.537 5.029a.843.843 0 1 1-1.134 1.248L19.696 16a2.629 2.629 0 0 0-3.47-.057l-.156.133a5.496 5.496 0 0 1-5.665.888 3.665 3.665 0 0 0-3.856.661l-3.785 3.407a.843.843 0 0 1-1.128-1.253l3.786-3.407a5.351 5.351 0 0 1 5.424-1.045l.205.08a3.81 3.81 0 0 0 3.928-.616l.156-.133z" fill-rule="nonzero"/>
        </g>
    </g>
</svg>
