<svg width="28" height="28" viewBox="0 0 28 28" xmlns="http://www.w3.org/2000/svg">
    <g fill="none" fill-rule="evenodd">
        <path d="M0 0h28v28H0z"/>
        <g fill="#333" fill-rule="nonzero">
            <path d="M15.753 2.286h-3.506a4 4 0 0 0-3.571 2.2l-.137.271a2 2 0 0 1-1.786 1.1H5.3a4.3 4.3 0 0 0-4.3 4.3v10.557a5 5 0 0 0 5 5h16a5 5 0 0 0 5-5V10.157a4.3 4.3 0 0 0-4.3-4.3h-1.453a2 2 0 0 1-1.786-1.1l-.137-.272a4 4 0 0 0-3.571-2.2zm0 2a2 2 0 0 1 1.786 1.1l.137.271a4 4 0 0 0 3.571 2.2H22.7a2.3 2.3 0 0 1 2.3 2.3v10.557a3 3 0 0 1-3 3H6a3 3 0 0 1-3-3V10.157a2.3 2.3 0 0 1 2.3-2.3h1.453a4 4 0 0 0 3.571-2.2l.137-.271a2 2 0 0 1 1.786-1.1h3.506z"/>
            <path d="M14 9.9a5.8 5.8 0 1 0 0 11.6 5.8 5.8 0 0 0 0-11.6zm0 2a3.8 3.8 0 1 1 0 7.6 3.8 3.8 0 0 1 0-7.6z"/>
        </g>
    </g>
</svg>
