<?xml version="1.0" encoding="UTF-8"?>
<svg width="64px" height="64px" viewBox="0 0 64 64" version="1.1" xmlns="http://www.w3.org/2000/svg" xmlns:xlink="http://www.w3.org/1999/xlink">
    <title>98AE0BE5-A407-4E9C-888C-5FE2353CF5A7</title>
    <g id="PC端" stroke="none" stroke-width="1" fill="none" fill-rule="evenodd">
        <g id="IFA-Translator_Web_忘记密码-邮件发送提示" transform="translate(-935.000000, -253.000000)" fill="#FF4646" fill-rule="nonzero">
            <g id="编组-2备份" transform="translate(737.000000, 193.000000)">
                <g id="编组备份" transform="translate(198.000000, 60.000000)">
                    <path d="M32,0 C49.7066666,0 64,14.2933333 64,32 C64,49.7066666 49.7066666,64 32,64 C14.2933333,64 0,49.7066666 0,32 C0,14.2933333 14.2933333,0 32,0 Z M18.2365247,15.82 L15.516585,18.1087297 C20.3594044,21.7242593 24.8705239,25.8705089 28.8343385,30.0167584 C22.7642292,36.1366227 18.0043347,42.156977 15.5,44.5783867 L20.6745194,48.9070712 C22.5154542,45.1091067 26.5124387,39.3541123 31.8693931,33.317173 C37.2263475,39.3872823 41.2399171,45.1754467 43.0808519,48.9899962 C43.0808519,48.9899962 47.2851489,44.4021711 48.5,44.4021711 C46.4476065,42.3020957 41.886732,35.9044327 35.5180927,29.3865285 C39.1667923,25.6383189 43.2632868,21.9232793 47.6417263,18.6560347 L46.4476065,16.4336449 C41.488692,18.9048096 36.7619676,22.5700942 32.5162081,26.4675688 C28.2372786,22.4042443 23.3944591,18.5399397 18.2365247,15.82 Z" id="形状"></path>
                </g>
            </g>
        </g>
    </g>
</svg>