<svg width="20" height="20" viewBox="0 0 20 20" xmlns="http://www.w3.org/2000/svg">
    <g fill="none" fill-rule="evenodd">
        <path d="M0 0h20v20H0z"/>
        <g fill="#25292C" fill-rule="nonzero">
            <path d="M15.125 2.125a2.75 2.75 0 0 1 2.75 2.75v7.25a2.75 2.75 0 0 1-2.75 2.75h-.806a.75.75 0 1 1 0-1.5h.806c.69 0 1.25-.56 1.25-1.25v-7.25c0-.69-.56-1.25-1.25-1.25h-7.25c-.69 0-1.25.56-1.25 1.25v.787a.75.75 0 0 1-1.5 0v-.787a2.75 2.75 0 0 1 2.75-2.75h7.25z"/>
            <path d="M12.125 5.125h-7.25a2.75 2.75 0 0 0-2.75 2.75v7.25a2.75 2.75 0 0 0 2.75 2.75h7.25a2.75 2.75 0 0 0 2.75-2.75v-7.25a2.75 2.75 0 0 0-2.75-2.75zm0 1.5c.69 0 1.25.56 1.25 1.25v7.25c0 .69-.56 1.25-1.25 1.25h-7.25c-.69 0-1.25-.56-1.25-1.25v-7.25c0-.69.56-1.25 1.25-1.25h7.25z"/>
        </g>
    </g>
</svg>
