<svg width="24" height="24" viewBox="0 0 24 24" xmlns="http://www.w3.org/2000/svg">
    <g fill="none" fill-rule="evenodd">
        <path d="M0 0h24v24H0z"/>
        <g fill="#25292C" fill-rule="nonzero">
            <path d="m12.687 7.7 3.5 8a.75.75 0 1 1-1.374.6l-.897-2.05h-3.833l-.896 2.05a.75.75 0 0 1-1.374-.6l3.5-8a.75.75 0 0 1 1.374 0zM12 9.87l-1.26 2.879h2.52L12 9.871z"/>
            <path d="M11.8 1.25c5.136 0 9.526 3.628 10.535 8.6a.75.75 0 0 1-1.47.3A9.253 9.253 0 0 0 3.193 8.602l-.091.239 1.66-.554a.75.75 0 0 1 .91.38l.04.095a.75.75 0 0 1-.475.949l-3 1a.75.75 0 0 1-.972-.861C2.275 4.878 6.665 1.25 11.8 1.25zM21.33 13.3a.75.75 0 0 1 1.005.85 10.753 10.753 0 0 1-21.07 0 .75.75 0 1 1 1.47-.3 9.253 9.253 0 0 0 17.672 1.547l.059-.157-1.197.46a.75.75 0 0 1-.926-.338l-.043-.093a.75.75 0 0 1 .43-.969l2.6-1z"/>
        </g>
    </g>
</svg>
