<svg width="24" height="24" viewBox="0 0 24 24" xmlns="http://www.w3.org/2000/svg">
    <g fill="none" fill-rule="evenodd">
        <path d="M0 0h24v24H0z"/>
        <g fill="#25292C" fill-rule="nonzero">
            <path d="M11.034 2.24 3.43 7.275A3.75 3.75 0 0 0 1.75 10.4V18.5a3.75 3.75 0 0 0 3.75 3.75h13a3.75 3.75 0 0 0 3.75-3.75v-8.099a3.75 3.75 0 0 0-1.68-3.126L12.966 2.24a1.75 1.75 0 0 0-1.932 0zm1.104 1.25 7.604 5.035a2.25 2.25 0 0 1 1.008 1.876V18.5a2.25 2.25 0 0 1-2.25 2.25h-13a2.25 2.25 0 0 1-2.25-2.25v-8.099c0-.754.379-1.459 1.008-1.876l7.604-5.034a.25.25 0 0 1 .276 0z"/>
            <path d="M12 15.509a.75.75 0 0 1 .75.75V21.5a.75.75 0 1 1-1.5 0v-5.241a.75.75 0 0 1 .75-.75z"/>
        </g>
    </g>
</svg>
