<svg width="24" height="24" viewBox="0 0 24 24" xmlns="http://www.w3.org/2000/svg">
    <g fill="none" fill-rule="evenodd">
        <path d="M0 0h24v24H0z"/>
        <g fill="#25292C" fill-rule="nonzero">
            <path d="M2.937 7.237a.75.75 0 0 1 .38.99A9.464 9.464 0 0 0 2.5 12.09a9.5 9.5 0 0 0 9.5 9.5c1.496 0 2.94-.346 4.248-1a.75.75 0 1 1 .671 1.341A10.957 10.957 0 0 1 12 23.09c-6.075 0-11-4.925-11-11 0-1.56.325-3.076.947-4.472a.75.75 0 0 1 .99-.38zM12 1.09c6.075 0 11 4.925 11 11 0 1.679-.377 3.305-1.093 4.785a.75.75 0 1 1-1.35-.654 9.458 9.458 0 0 0 .943-4.131 9.5 9.5 0 0 0-9.5-9.5 9.463 9.463 0 0 0-3.9.835.75.75 0 0 1-.617-1.368A10.963 10.963 0 0 1 12 1.09z"/>
            <path d="M12 5.701a3.313 3.313 0 0 1 0 6.625.75.75 0 0 1-.102-1.493l.102-.007a1.813 1.813 0 1 0-1.813-1.812.75.75 0 0 1-1.5 0A3.313 3.313 0 0 1 12 5.7zM12 13.559c3.624 0 6.167 1.553 7.491 4.606a.75.75 0 1 1-1.376.597c-1.078-2.486-3.07-3.703-6.115-3.703-3.38 0-5.475 1.5-6.448 4.6a.75.75 0 1 1-1.431-.45c1.171-3.732 3.851-5.65 7.879-5.65z"/>
            <path d="M2.025 2.114a.75.75 0 0 1 1.06 0L22.03 21.059a.75.75 0 0 1-1.06 1.06L2.025 3.174a.75.75 0 0 1 0-1.06z"/>
        </g>
    </g>
</svg>
