<svg width="24" height="24" viewBox="0 0 24 24" xmlns="http://www.w3.org/2000/svg">
    <g fill="none" fill-rule="evenodd">
        <path d="M0 0h24v24H0z"/>
        <g fill="#25292C" fill-rule="nonzero">
            <path d="M12 2.506a4.636 4.636 0 1 0 0 9.273 4.636 4.636 0 0 0 0-9.273zm0 1.5a3.136 3.136 0 1 1 0 6.273 3.136 3.136 0 0 1 0-6.273z"/>
            <path d="M19.017 2.506a2.37 2.37 0 0 1 2.37 2.369v15.653h-1.5V4.875a.87.87 0 1 0-1.74 0v8.744c0 1.073-.7 1.659-1.713 1.669-.606.006-1.292-.167-2.192-.492A7.457 7.457 0 0 0 12 14.369c-4.297 0-7.67 3.31-7.67 6.16h-1.5c0-3.685 4.05-7.66 9.17-7.66l.217.006c.168.009.384.027.637.06.627.08 1.27.224 1.897.45.74.267 1.293.406 1.669.403l.128-.002c.079-.003.096-.015.1-.073V4.875a2.37 2.37 0 0 1 2.369-2.37z"/>
            <path d="M21.5 19.779a.75.75 0 1 1 0 1.5h-19a.75.75 0 0 1 0-1.5h19z"/>
        </g>
    </g>
</svg>
