<svg width="24" height="24" viewBox="0 0 24 24" xmlns="http://www.w3.org/2000/svg">
    <g fill="none" fill-rule="evenodd">
        <path d="M0 0h24v24H0z"/>
        <g fill="#25292C" fill-rule="nonzero">
            <path d="M7.25 1.75a.75.75 0 0 1 0 1.5H5.5A2.25 2.25 0 0 0 3.25 5.5v1.75a.75.75 0 0 1-1.5 0V5.5A3.75 3.75 0 0 1 5.5 1.75h1.75zM2.5 16a.75.75 0 0 1 .75.75v1.75a2.25 2.25 0 0 0 2.25 2.25h1.75a.75.75 0 1 1 0 1.5H5.5a3.75 3.75 0 0 1-3.75-3.75v-1.75A.75.75 0 0 1 2.5 16zM21.5 16a.75.75 0 0 1 .75.75v1.75a3.75 3.75 0 0 1-3.75 3.75h-1.75a.75.75 0 1 1 0-1.5h1.75a2.25 2.25 0 0 0 2.25-2.25v-1.75a.75.75 0 0 1 .75-.75zM18.5 1.75a3.75 3.75 0 0 1 3.75 3.75v1.75a.75.75 0 1 1-1.5 0V5.5a2.25 2.25 0 0 0-2.25-2.25h-1.75a.75.75 0 1 1 0-1.5h1.75zM16.75 11.25a.75.75 0 1 1 0 1.5h-9.5a.75.75 0 1 1 0-1.5h9.5z"/>
        </g>
    </g>
</svg>
