<svg width="24" height="24" viewBox="0 0 24 24" xmlns="http://www.w3.org/2000/svg">
    <g fill="none" fill-rule="evenodd">
        <path d="M0 0h24v24H0z"/>
        <g fill="#25292C" fill-rule="nonzero">
            <path d="M17.5 2.25a3.25 3.25 0 1 0 0 6.5 3.25 3.25 0 0 0 0-6.5zm0 1.5a1.75 1.75 0 1 1 0 3.5 1.75 1.75 0 0 1 0-3.5zM6.5 8.75a3.25 3.25 0 1 0 0 6.5 3.25 3.25 0 0 0 0-6.5zm0 1.5a1.75 1.75 0 1 1 0 3.5 1.75 1.75 0 0 1 0-3.5z"/>
            <path d="M14.612 6.146a.75.75 0 0 1 .777 1.283l-6.33 3.835a.75.75 0 1 1-.778-1.283l6.33-3.835zM8.024 12.9a.75.75 0 0 1 1.027-.264l6.67 3.942a.75.75 0 0 1-.763 1.291l-6.67-3.941a.75.75 0 0 1-.264-1.028z"/>
            <path d="M17.5 15.25a3.25 3.25 0 1 0 0 6.5 3.25 3.25 0 0 0 0-6.5zm0 1.5a1.75 1.75 0 1 1 0 3.5 1.75 1.75 0 0 1 0-3.5z"/>
        </g>
    </g>
</svg>
