<svg width="24" height="24" viewBox="0 0 24 24" xmlns="http://www.w3.org/2000/svg">
    <g fill="none" fill-rule="evenodd">
        <path d="M0 0h24v24H0z"/>
        <g fill="#25292C" fill-rule="nonzero">
            <path d="M21.402 11.25a.75.75 0 0 1 .75.75v7.078a3.75 3.75 0 0 1-3.75 3.75H5.598a3.75 3.75 0 0 1-3.75-3.75V12a.75.75 0 1 1 1.5 0v7.078a2.25 2.25 0 0 0 2.25 2.25h12.804a2.25 2.25 0 0 0 2.25-2.25V12a.75.75 0 0 1 .75-.75z"/>
            <path d="M19.75 4.46H4.25A3.75 3.75 0 0 0 .5 8.21V9a3.75 3.75 0 0 0 3.75 3.75h15.5A3.75 3.75 0 0 0 23.5 9v-.79a3.75 3.75 0 0 0-3.75-3.75zm0 1.5A2.25 2.25 0 0 1 22 8.21V9a2.25 2.25 0 0 1-2.25 2.25H4.25A2.25 2.25 0 0 1 2 9v-.79a2.25 2.25 0 0 1 2.25-2.25h15.5z"/>
            <path d="M12.96 1.172a3.75 3.75 0 0 1 3.75 3.75v.292a.75.75 0 1 1-1.5 0v-.292a2.25 2.25 0 0 0-2.25-2.25h-1.92a2.25 2.25 0 0 0-2.25 2.25v.292a.75.75 0 1 1-1.5 0v-.292a3.75 3.75 0 0 1 3.75-3.75h1.92zM6.908 10.118a.75.75 0 0 1 .75.75v3.395a.75.75 0 0 1-1.5 0v-3.395a.75.75 0 0 1 .75-.75zM17.092 10.118a.75.75 0 0 1 .75.75v3.395a.75.75 0 0 1-1.5 0v-3.395a.75.75 0 0 1 .75-.75z"/>
        </g>
    </g>
</svg>
