<svg width="24" height="24" viewBox="0 0 24 24" xmlns="http://www.w3.org/2000/svg">
    <g fill="none" fill-rule="evenodd">
        <path d="M0 0h24v24H0z"/>
        <g fill="#25292C" fill-rule="nonzero">
            <path d="M12 1C5.925 1 1 5.925 1 12s4.925 11 11 11 11-4.925 11-11S18.075 1 12 1zm0 1.5a9.5 9.5 0 1 1 0 19 9.5 9.5 0 0 1 0-19z"/>
            <path d="M12 5.612a3.313 3.313 0 1 0 0 6.626 3.313 3.313 0 0 0 0-6.625zm0 1.5a1.813 1.813 0 1 1 0 3.626 1.813 1.813 0 0 1 0-3.625zM12 13.47c4.027 0 6.707 1.918 7.879 5.65a.75.75 0 0 1-1.432.45c-.972-3.1-3.068-4.6-6.447-4.6-3.38 0-5.475 1.5-6.448 4.6a.75.75 0 1 1-1.431-.45c1.171-3.732 3.851-5.65 7.879-5.65z"/>
        </g>
    </g>
</svg>
