<svg width="24" height="24" viewBox="0 0 24 24" xmlns="http://www.w3.org/2000/svg">
    <g fill="none" fill-rule="evenodd">
        <path d="M0 0h24v24H0z"/>
        <g fill="#25292C" fill-rule="nonzero">
            <path d="M12 1.75a4.55 4.55 0 1 0 0 9.1 4.55 4.55 0 0 0 0-9.1zm0 1.5a3.05 3.05 0 1 1 0 6.1 3.05 3.05 0 0 1 0-6.1zM13.139 11.35H10.86c-4.462 0-8.111 3.279-8.111 7.364 0 1.97 1.742 3.536 3.85 3.536h10.8c2.108 0 3.85-1.565 3.85-3.536 0-4.085-3.65-7.364-8.111-7.364zm0 1.5c3.667 0 6.611 2.645 6.611 5.864 0 1.104-1.037 2.036-2.35 2.036H6.6c-1.313 0-2.35-.932-2.35-2.036 0-3.219 2.944-5.864 6.611-5.864h2.278z"/>
        </g>
    </g>
</svg>
