<svg width="20" height="20" viewBox="0 0 20 20" xmlns="http://www.w3.org/2000/svg">
    <path d="M10 0c5.523 0 10 4.477 10 10s-4.477 10-10 10S0 15.523 0 10 4.477 0 10 0zm.657 4.568c-.058-.406-.433-.658-.794-.538-.292.096-.453.37-.453.772l.001 4.16c0 .173-.025.334-.22.332-.196-.003-.218-.17-.218-.338V7.82c0-.725.006-1.45-.002-2.174-.006-.532-.42-.849-.858-.673-.26.104-.4.358-.4.74v5.591l-.053.011c-.296-.436-.586-.878-.89-1.308-.228-.323-.638-.43-.955-.27-.302.152-.472.517-.397.908.028.15.095.298.173.427.642 1.067 1.291 2.129 1.936 3.193.439.725 1.032 1.233 1.794 1.484.927.304 1.868.345 2.802.044.818-.264 1.391-.84 1.714-1.707.18-.484.232-.989.233-1.504 0-1.954 0-3.908.003-5.862 0-.54-.226-.868-.622-.879-.396-.01-.644.328-.644.88v2.6c0 .079.02.173-.013.232-.045.083-.13.191-.198.192-.071 0-.166-.102-.207-.184-.037-.076-.02-.185-.02-.28V5.289c0-.094-.001-.19-.018-.282-.052-.289-.273-.508-.535-.542a.598.598 0 0 0-.625.37c-.055.14-.077.305-.077.458-.006 1.214-.004 2.427-.004 3.64 0 .173-.004.359-.214.362-.21.004-.223-.181-.226-.355V4.85c0-.094 0-.19-.013-.282z" fill="#FFA800" fill-rule="evenodd"/>
</svg>
