<svg width="16" height="16" viewBox="0 0 16 16" xmlns="http://www.w3.org/2000/svg">
    <g fill="none" fill-rule="evenodd">
        <path d="M0 0h16v16H0z"/>
        <g fill="#676B6F" fill-rule="nonzero">
            <path d="M8 1.5a2.6 2.6 0 0 0-2.6 2.6V8a2.6 2.6 0 1 0 5.2 0V4.1A2.6 2.6 0 0 0 8 1.5zm0 1a1.6 1.6 0 0 1 1.6 1.6V8a1.6 1.6 0 1 1-3.2 0V4.1A1.6 1.6 0 0 1 8 2.5z"/>
            <path d="M3.5 7.2a.5.5 0 0 1 .5.5 4 4 0 0 0 5.333 3.773.5.5 0 1 1 .334.942A5 5 0 0 1 3 7.7a.5.5 0 0 1 .5-.5zm9 0a.5.5 0 0 1 .5.5c0 .697-.143 1.375-.416 2a.5.5 0 1 1-.917-.4c.219-.5.333-1.042.333-1.6a.5.5 0 0 1 .5-.5z"/>
            <path d="M8.167 11.7c.368 0 .666.224.666.5V14c0 .276-.298.5-.666.5-.369 0-.667-.224-.667-.5v-1.8c0-.276.298-.5.667-.5zM2.246 2.246a.5.5 0 0 1 .708 0l10.8 10.8a.5.5 0 0 1-.708.708l-10.8-10.8a.5.5 0 0 1 0-.708z"/>
        </g>
    </g>
</svg>
