<svg width="16" height="16" viewBox="0 0 16 16" xmlns="http://www.w3.org/2000/svg">
    <g fill="none" fill-rule="evenodd">
        <path d="M0 0h16v16H0z"/>
        <g fill="#04D299" fill-rule="nonzero">
            <path d="M8 1.5a2.6 2.6 0 0 0-2.6 2.6V8a2.6 2.6 0 1 0 5.2 0V4.1A2.6 2.6 0 0 0 8 1.5z"/>
            <path d="M12.5 7.2a.5.5 0 0 1 .5.5 5 5 0 1 1-10 0 .5.5 0 0 1 1 0 4 4 0 1 0 8 0 .5.5 0 0 1 .5-.5z"/>
            <path d="M8.167 11.7c.368 0 .666.224.666.5V14c0 .276-.298.5-.666.5-.369 0-.667-.224-.667-.5v-1.8c0-.276.298-.5.667-.5z"/>
        </g>
    </g>
</svg>
